<svg width="28" height="28" viewBox="0 0 28 28" fill="none" xmlns="http://www.w3.org/2000/svg">
<path d="M22.8668 4.12012C20.5201 1.98679 17.4135 0.706787 14.0001 0.706787C6.66679 0.706787 0.706787 6.66679 0.706787 14.0001C0.706787 21.3335 6.66679 27.2935 14.0001 27.2935C17.4135 27.2935 20.5201 26.0135 22.8668 23.8801C25.5868 21.4668 27.2935 17.9201 27.2935 14.0001C27.2935 10.0801 25.5868 6.53345 22.8668 4.12012ZM13.9601 19.8535C13.9335 22.0535 12.2935 22.5868 10.7601 21.9735C7.60012 20.7068 5.37345 17.6135 5.37345 14.0001C5.37345 10.3868 7.60012 7.29345 10.7601 6.01345C12.2935 5.40012 13.9335 5.94679 13.9601 8.13345V19.8535Z" fill="white"/>
</svg>
