<svg width="300" height="309" fill="none" xmlns="http://www.w3.org/2000/svg"><g filter="url(#a)"><rect x="60" y="60.874" width="180" height="188" rx="8" fill="#fff" shape-rendering="crispEdges"/><path d="M224 154.875c0 40.869-33.131 74-74 74s-74-33.131-74-74c0-40.87 33.131-74 74-74s74 33.13 74 74zm-134.69 0c0 33.518 27.172 60.69 60.69 60.69s60.691-27.172 60.691-60.69c0-33.519-27.173-60.691-60.691-60.691s-60.69 27.172-60.69 60.691z" fill="#EBEBEB"/><path d="M208.827 154.874c0 32.49-26.338 58.828-58.827 58.828-32.49 0-58.828-26.338-58.828-58.828 0-32.489 26.338-58.827 58.828-58.827 32.489 0 58.827 26.338 58.827 58.827zm-104.345 0c0 25.139 20.379 45.518 45.518 45.518s45.518-20.379 45.518-45.518c0-25.138-20.379-45.518-45.518-45.518s-45.518 20.38-45.518 45.518z" fill="#EBEBEB"/><path d="M193.655 154.875c0 24.11-19.545 43.654-43.655 43.654s-43.655-19.544-43.655-43.654c0-24.11 19.545-43.655 43.655-43.655s43.655 19.545 43.655 43.655zm-74 0c0 16.759 13.586 30.345 30.345 30.345s30.345-13.586 30.345-30.345-13.586-30.346-30.345-30.346-30.345 13.587-30.345 30.346z" fill="#EBEBEB"/><path d="M150 87.53c0-3.676 2.985-6.687 6.646-6.357a74 74 0 1 1-55.343 17.983c2.767-2.42 6.952-1.738 9.112 1.235 2.161 2.973 1.472 7.11-1.247 9.582a60.691 60.691 0 1 0 47.474-15.425c-3.654-.402-6.642-3.344-6.642-7.019z" fill="#42A8DF"/><path d="M150 102.702c0-3.675 2.989-6.694 6.641-6.279a58.823 58.823 0 0 1 47.348 81.815 58.825 58.825 0 0 1-63.192 34.74 58.831 58.831 0 0 1-43.708-83.816c1.607-3.306 5.757-4.212 8.86-2.243 3.103 1.969 3.972 6.068 2.475 9.425a45.519 45.519 0 1 0 48.207-26.502c-3.636-.535-6.631-3.465-6.631-7.14z" fill="#4FD399"/><path d="M132.096 162.019c-.276 0-.504-.066-.684-.198a.786.786 0 0 1-.324-.522c-.036-.228.018-.48.162-.756l5.436-10.224v.792h-5.832c-.324 0-.576-.084-.756-.252-.168-.168-.252-.402-.252-.702 0-.312.084-.552.252-.72.18-.168.432-.252.756-.252h6.966c.324 0 .588.084.792.252.204.168.306.408.306.72 0 .264-.036.498-.108.702a5.563 5.563 0 0 1-.288.63l-5.112 9.774a1.294 1.294 0 0 1-.522.576c-.204.12-.468.18-.792.18zm13.565.036c-1.044 0-1.938-.246-2.682-.738-.732-.504-1.29-1.224-1.674-2.16-.384-.936-.576-2.07-.576-3.402 0-1.08.12-2.034.36-2.862.252-.84.612-1.548 1.08-2.124a4.582 4.582 0 0 1 1.71-1.314c.684-.3 1.452-.45 2.304-.45.528 0 1.062.084 1.602.252a5.352 5.352 0 0 1 1.548.72c.192.12.318.276.378.468s.066.384.018.576a1 1 0 0 1-.252.486.815.815 0 0 1-.468.252c-.192.024-.402-.03-.63-.162a4.681 4.681 0 0 0-1.152-.504 4.176 4.176 0 0 0-1.08-.144c-.696 0-1.284.162-1.764.486-.48.324-.846.81-1.098 1.458-.24.648-.36 1.458-.36 2.43v1.35h-.216c.096-.612.294-1.134.594-1.566a3.01 3.01 0 0 1 1.188-1.008c.48-.24 1.014-.36 1.602-.36.732 0 1.38.174 1.944.522a3.675 3.675 0 0 1 1.332 1.44c.324.612.486 1.314.486 2.106 0 .816-.18 1.548-.54 2.196a3.884 3.884 0 0 1-1.476 1.512c-.624.36-1.35.54-2.178.54zm-.126-1.836c.432 0 .81-.096 1.134-.288.336-.192.594-.462.774-.81a2.7 2.7 0 0 0 .27-1.224c0-.468-.09-.876-.27-1.224a1.938 1.938 0 0 0-.774-.81 2.083 2.083 0 0 0-1.134-.306c-.432 0-.81.102-1.134.306a2.097 2.097 0 0 0-.774.81c-.18.348-.27.756-.27 1.224 0 .456.09.864.27 1.224.192.348.45.618.774.81.324.192.702.288 1.134.288zm10.973 1.512c-.12.216-.27.354-.45.414a.78.78 0 0 1-.522.036.798.798 0 0 1-.432-.252.759.759 0 0 1-.216-.45c-.024-.192.024-.396.144-.612l6.642-11.52c.12-.216.264-.36.432-.432a.79.79 0 0 1 .522-.036c.168.036.312.12.432.252s.192.294.216.486c.036.18-.006.372-.126.576l-6.642 11.538zm-1.926-4.968c-1.008 0-1.794-.348-2.358-1.044-.564-.696-.846-1.644-.846-2.844 0-.804.126-1.494.378-2.07.252-.576.618-1.02 1.098-1.332.48-.312 1.056-.468 1.728-.468 1.008 0 1.794.348 2.358 1.044.564.684.846 1.626.846 2.826 0 .804-.126 1.5-.378 2.088-.252.576-.618 1.02-1.098 1.332-.48.312-1.056.468-1.728.468zm0-1.512c.288 0 .534-.084.738-.252.204-.18.36-.444.468-.792.108-.348.162-.792.162-1.332 0-.804-.12-1.398-.36-1.782-.24-.384-.576-.576-1.008-.576-.288 0-.534.084-.738.252-.204.168-.36.426-.468.774-.108.348-.162.792-.162 1.332 0 .816.12 1.416.36 1.8.24.384.576.576 1.008.576zm9.036 6.804c-1.008 0-1.794-.348-2.358-1.044-.564-.696-.846-1.644-.846-2.844 0-.804.126-1.494.378-2.07.252-.576.618-1.02 1.098-1.332.48-.312 1.056-.468 1.728-.468 1.008 0 1.794.348 2.358 1.044.564.684.846 1.626.846 2.826 0 .804-.126 1.5-.378 2.088-.252.576-.618 1.02-1.098 1.332-.48.312-1.056.468-1.728.468zm0-1.512c.288 0 .534-.084.738-.252.204-.168.36-.426.468-.774.108-.36.162-.81.162-1.35 0-.804-.12-1.398-.36-1.782-.24-.384-.576-.576-1.008-.576-.288 0-.534.084-.738.252-.204.168-.36.426-.468.774-.108.348-.162.792-.162 1.332 0 .816.12 1.416.36 1.8.24.384.576.576 1.008.576z" fill="#000"/></g><defs><filter id="a" x="0" y=".875" width="300" height="308" filterUnits="userSpaceOnUse" color-interpolation-filters="sRGB"><feFlood flood-opacity="0" result="BackgroundImageFix"/><feColorMatrix in="SourceAlpha" values="0 0 0 0 0 0 0 0 0 0 0 0 0 0 0 0 0 0 127 0" result="hardAlpha"/><feOffset/><feGaussianBlur stdDeviation="30"/><feComposite in2="hardAlpha" operator="out"/><feColorMatrix values="0 0 0 0 0 0 0 0 0 0 0 0 0 0 0 0 0 0 0.15 0"/><feBlend in2="BackgroundImageFix" result="effect1_dropShadow_2_258"/><feBlend in="SourceGraphic" in2="effect1_dropShadow_2_258" result="shape"/></filter></defs></svg>