<svg width="300" height="309" fill="none" xmlns="http://www.w3.org/2000/svg"><g filter="url(#a)"><rect x="60" y="60.074" width="180" height="188" rx="8" fill="#fff" shape-rendering="crispEdges"/><path d="M224 154.074c0 40.869-33.131 74-74 74s-74-33.131-74-74 33.131-74 74-74 74 33.131 74 74zm-134.69 0c0 33.519 27.172 60.691 60.69 60.691s60.691-27.172 60.691-60.691c0-33.518-27.173-60.69-60.691-60.69s-60.69 27.172-60.69 60.69z" fill="#EBEBEB"/><path d="M208.827 154.074c0 32.49-26.338 58.827-58.827 58.827-32.49 0-58.828-26.337-58.828-58.827 0-32.489 26.338-58.827 58.828-58.827 32.489 0 58.827 26.338 58.827 58.827zm-104.345 0c0 25.139 20.379 45.518 45.518 45.518s45.518-20.379 45.518-45.518-20.379-45.518-45.518-45.518-45.518 20.379-45.518 45.518z" fill="#EBEBEB"/><path d="M193.655 154.074c0 24.11-19.545 43.655-43.655 43.655s-43.655-19.545-43.655-43.655c0-24.109 19.545-43.654 43.655-43.654s43.655 19.545 43.655 43.654zm-74 0c0 16.76 13.586 30.346 30.345 30.346s30.345-13.586 30.345-30.346c0-16.759-13.586-30.345-30.345-30.345s-30.345 13.586-30.345 30.345z" fill="#EBEBEB"/><path d="M150 86.729c0-3.675 2.985-6.686 6.646-6.356a74 74 0 1 1-55.343 17.982c2.767-2.418 6.952-1.738 9.112 1.236 2.161 2.973 1.472 7.109-1.247 9.582a60.693 60.693 0 0 0 17.607 100.972 60.686 60.686 0 0 0 41.979 1.649 60.685 60.685 0 0 0 41.189-67.214 60.688 60.688 0 0 0-53.301-50.832c-3.654-.402-6.642-3.344-6.642-7.02z" fill="#42A8DF"/><path d="M150 101.901c0-3.675 2.989-6.693 6.641-6.278a58.827 58.827 0 1 1-59.552 32.738c1.607-3.305 5.757-4.212 8.86-2.242 3.103 1.969 3.972 6.067 2.475 9.424a45.524 45.524 0 0 0 8.395 49.69 45.521 45.521 0 0 0 55.109 8.729 45.523 45.523 0 0 0 22.16-51.208 45.521 45.521 0 0 0-37.457-33.712c-3.636-.536-6.631-3.465-6.631-7.141z" fill="#4FD399"/><path d="M132.096 161.218c-.276 0-.504-.066-.684-.198a.786.786 0 0 1-.324-.522c-.036-.228.018-.48.162-.756l5.436-10.224v.792h-5.832c-.324 0-.576-.084-.756-.252-.168-.168-.252-.402-.252-.702 0-.312.084-.552.252-.72.18-.168.432-.252.756-.252h6.966c.324 0 .588.084.792.252.204.168.306.408.306.72 0 .264-.036.498-.108.702a5.563 5.563 0 0 1-.288.63l-5.112 9.774a1.294 1.294 0 0 1-.522.576c-.204.12-.468.18-.792.18zm13.097.036c-1.5 0-2.646-.564-3.438-1.692-.792-1.14-1.188-2.76-1.188-4.86 0-1.416.174-2.604.522-3.564.36-.972.882-1.704 1.566-2.196.696-.492 1.542-.738 2.538-.738 1.512 0 2.658.552 3.438 1.656.792 1.104 1.188 2.712 1.188 4.824 0 1.404-.18 2.598-.54 3.582-.348.972-.864 1.716-1.548 2.232-.684.504-1.53.756-2.538.756zm0-1.89c.816 0 1.416-.378 1.8-1.134.396-.756.594-1.938.594-3.546 0-1.608-.198-2.772-.594-3.492-.384-.732-.984-1.098-1.8-1.098-.804 0-1.404.366-1.8 1.098-.396.72-.594 1.884-.594 3.492s.198 2.79.594 3.546c.396.756.996 1.134 1.8 1.134zm11.315 1.566c-.12.216-.27.354-.45.414a.78.78 0 0 1-.522.036.798.798 0 0 1-.432-.252.759.759 0 0 1-.216-.45c-.024-.192.024-.396.144-.612l6.642-11.52c.12-.216.264-.36.432-.432a.79.79 0 0 1 .522-.036c.168.036.312.12.432.252s.192.294.216.486c.036.18-.006.372-.126.576l-6.642 11.538zm-1.926-4.968c-1.008 0-1.794-.348-2.358-1.044-.564-.696-.846-1.644-.846-2.844 0-.804.126-1.494.378-2.07.252-.576.618-1.02 1.098-1.332.48-.312 1.056-.468 1.728-.468 1.008 0 1.794.348 2.358 1.044.564.684.846 1.626.846 2.826 0 .804-.126 1.5-.378 2.088-.252.576-.618 1.02-1.098 1.332-.48.312-1.056.468-1.728.468zm0-1.512c.288 0 .534-.084.738-.252.204-.18.36-.444.468-.792.108-.348.162-.792.162-1.332 0-.804-.12-1.398-.36-1.782-.24-.384-.576-.576-1.008-.576-.288 0-.534.084-.738.252-.204.168-.36.426-.468.774-.108.348-.162.792-.162 1.332 0 .816.12 1.416.36 1.8.24.384.576.576 1.008.576zm9.036 6.804c-1.008 0-1.794-.348-2.358-1.044-.564-.696-.846-1.644-.846-2.844 0-.804.126-1.494.378-2.07.252-.576.618-1.02 1.098-1.332.48-.312 1.056-.468 1.728-.468 1.008 0 1.794.348 2.358 1.044.564.684.846 1.626.846 2.826 0 .804-.126 1.5-.378 2.088-.252.576-.618 1.02-1.098 1.332-.48.312-1.056.468-1.728.468zm0-1.512c.288 0 .534-.084.738-.252.204-.168.36-.426.468-.774.108-.36.162-.81.162-1.35 0-.804-.12-1.398-.36-1.782-.24-.384-.576-.576-1.008-.576-.288 0-.534.084-.738.252-.204.168-.36.426-.468.774-.108.348-.162.792-.162 1.332 0 .816.12 1.416.36 1.8.24.384.576.576 1.008.576z" fill="#000"/></g><defs><filter id="a" x="0" y=".074" width="300" height="308" filterUnits="userSpaceOnUse" color-interpolation-filters="sRGB"><feFlood flood-opacity="0" result="BackgroundImageFix"/><feColorMatrix in="SourceAlpha" values="0 0 0 0 0 0 0 0 0 0 0 0 0 0 0 0 0 0 127 0" result="hardAlpha"/><feOffset/><feGaussianBlur stdDeviation="30"/><feComposite in2="hardAlpha" operator="out"/><feColorMatrix values="0 0 0 0 0 0 0 0 0 0 0 0 0 0 0 0 0 0 0.15 0"/><feBlend in2="BackgroundImageFix" result="effect1_dropShadow_2_245"/><feBlend in="SourceGraphic" in2="effect1_dropShadow_2_245" result="shape"/></filter></defs></svg>