<svg width="18" height="13" viewBox="0 0 18 13" fill="none" xmlns="http://www.w3.org/2000/svg">
<path d="M17.4052 2.41413L7.06377 12.7556C6.97218 12.8479 6.8475 12.8998 6.71743 12.8998C6.58736 12.8998 6.46268 12.8479 6.37109 12.7556L1.11255 7.49702C1.0202 7.4055 0.968262 7.28082 0.968262 7.15068C0.968262 7.02063 1.0202 6.89594 1.11255 6.80433L1.79548 6.12141C1.88707 6.02911 2.01175 5.97711 2.14182 5.97711C2.27189 5.97711 2.39657 6.02911 2.48816 6.12141L6.71255 10.3458L16.0296 1.02876C16.2226 0.84165 16.5293 0.84165 16.7223 1.02876L17.4052 1.72144C17.4976 1.81304 17.5495 1.93772 17.5495 2.06779C17.5495 2.19785 17.4976 2.32253 17.4052 2.41413Z" fill="#3D3A41"/>
</svg>
